<svg xmlns="http://www.w3.org/2000/svg" version="1.1" xmlns:xlink="http://www.w3.org/1999/xlink" xmlns:svgjs="http://svgjs.dev/svgjs" viewBox="0 0 800 800" opacity="0.16"><defs><symbol id="bbburst-shape-6" viewBox="0 0 133 116"><path d="M59.7487 10.2513c-13.6683-13.66839-35.8291-13.66839-49.4974 0-13.66839 13.6683-13.66839 35.8291 0 49.4974l49.4974-49.4974ZM66.5 66.5 41.7513 91.2487 66.5 115.997l24.7487-24.7483L66.5 66.5Zm56.249-6.7513c13.668-13.6683 13.668-35.8291 0-49.4974-13.669-13.66839-35.8294-13.66839-49.4977 0l49.4977 49.4974Zm-112.4977 0 31.5 31.5 49.4974-49.4974-31.5-31.5-49.4974 49.4974Zm80.9974 31.5 31.5003-31.5-49.4977-49.4974-31.5 31.5 49.4974 49.4974Z"></path></symbol><symbol id="bbburst-shape-7" viewBox="0 0 139 124"><path fill-rule="evenodd" clip-rule="evenodd" d="M70.1641 15.0917C54.6093.764854 37.8293-2.10782 24.4032 2.82615 10.3804 7.97941.763366 21.4591 1.00047 37.0608c.1068 7.0273 2.86132 13.7317 7.0039 20.2001C12.1442 63.7249 17.853 70.2322 24.25 76.9024c3.8209 3.9842 7.8871 8.0312 12.0767 12.201h.0001c10.0335 9.9862 20.7748 20.6766 30.5497 32.8956 1.38 1.725 3.8972 2.005 5.6223.624.6706-.536 1.1228-1.244 1.3439-2.011 9.5768-11.748 20.0328-22.0735 29.8163-31.7351 4.19-4.1373 8.256-8.1528 12.078-12.1062 6.396-6.6176 12.106-13.0752 16.247-19.4911 4.144-6.4196 6.905-13.0811 7.012-20.0691.237-15.5124-9.399-28.8902-23.411-33.99923-13.32-4.85681-29.9542-2.08621-45.4209 11.88043Zm-3.7351 7.4919C52.1278 8.44857 37.6826 6.46918 27.1626 10.3352 16.2859 14.3323 8.8148 24.7824 8.99955 36.9392c.07575 4.9844 2.03755 10.2234 5.74165 16.0072 3.707 5.7881 8.9752 11.8418 15.2827 18.4187 3.5798 3.7328 7.4978 7.6329 11.6 11.7163 9.0476 9.0063 18.9911 18.9046 28.1786 29.8666 9.2999-11.068 19.4036-21.0473 28.5839-30.1144l.0007-.0006c4.1019-4.0508 8.0189-7.9196 11.5979-11.6222 6.307-6.5252 11.573-12.5298 15.278-18.2697 3.703-5.7362 5.658-10.924 5.734-15.8531.184-12.0276-7.267-22.3914-18.153-26.3608-10.71-3.90518-25.4722-1.80041-40.0023 12.867-1.5547 1.5694-4.0874 1.5813-5.6568.0265-.3146-.3116-.5666-.6625-.7559-1.0371Z"></path></symbol><symbol id="bbburst-shape-8" viewBox="0 0 87 168"><path d="m12 12 31.2546 18.0749c16.4102 9.4902 20.014 31.6325 7.4603 45.8369L36.3296 92.1884c-12.5684 14.2206-8.9394 36.3916 7.5068 45.8636L75 156" stroke-width="14" stroke-linecap="round" stroke-linejoin="round"></path></symbol><symbol id="bbburst-shape-9" viewBox="0 0 182 172"><path d="M13.5809 69.845 91 13.5967l77.419 56.2483-29.571 91.012H43.1524L13.5809 69.845Z" stroke-width="22"></path></symbol><symbol id="bbburst-shape-10" viewBox="0 0 145 145"><circle cx="72.5" cy="72.5" r="61.5" fill="none" stroke-width="22"></circle></symbol><symbol id="bbburst-shape-11" viewBox="0 0 194 167"><path d="M10.398 161 97 11l86.603 150H10.397Z" stroke-width="11"></path></symbol><symbol id="bbburst-shape-12" viewBox="0 0 170 151"><path d="M69.3728 54.2122 85 10.0031l15.627 44.2091c1.413 3.9958 5.19 6.6672 9.428 6.6673h49.312l-39.149 26.1447c-3.803 2.5401-5.399 7.3367-3.875 11.6488l15.179 42.94-40.9683-27.36c-3.3621-2.245-7.7453-2.245-11.1074 0l-40.9682 27.36 15.1785-42.94c1.5243-4.3121-.0712-9.1087-3.8746-11.6488L10.6333 60.8795h49.3112c4.2381-.0001 8.0159-2.6715 9.4283-6.6673Z" stroke-width="12"></path></symbol><symbol id="bbburst-shape-14" viewBox="0 0 185 109"><path d="M168 16.5C168 58.1975 134.197 92 92.5 92 50.8025 92 17 58.1975 17 16.5" stroke-width="33" stroke-linecap="round"></path></symbol></defs><use xlink:href="#bbburst-shape-10" width="28.211215566046572" opacity="0.367526360452503" transform="matrix(0.9515194791664174,-0.30758849257875304,0.30758849257875304,0.9515194791664174,547.4913879616086,43.16968993787674)" fill="none" stroke="#00a19d"></use><use xlink:href="#bbburst-shape-10" width="31.75853653602593" opacity="0.38765486292862517" transform="matrix(0.9792634297977263,0.20259105375310535,-0.20259105375310535,0.9792634297977263,230.27576589803675,148.62784288917067)" fill="none" stroke="#2c2891"></use><use xlink:href="#bbburst-shape-11" width="26.519761877936542" opacity="0.4510066310083749" transform="matrix(0.866584870542242,0.4990297207053762,-0.4990297207053762,0.866584870542242,616.6754613137769,291.86386411935587)" fill="none" stroke="#ff5c58"></use><use xlink:href="#bbburst-shape-14" width="13.943671835488521" opacity="0.8636855709229009" transform="matrix(0.9976056376138333,0.06915917727313656,-0.06915917727313656,0.9976056376138333,467.75513756715134,39.855161646833494)" fill="none" stroke="#ffa6d5"></use><use xlink:href="#bbburst-shape-11" width="23.427970765931054" opacity="0.5212564306250327" transform="matrix(0.8391523774917876,0.5438963939482228,-0.5438963939482228,0.8391523774917876,396.76403372814207,100.57073193145868)" fill="none" stroke="#2c2891"></use><use xlink:href="#bbburst-shape-10" width="11.087309651614575" opacity="0.8457549011045112" transform="matrix(0.7259961754762367,0.6876987372344646,-0.6876987372344646,0.7259961754762367,655.1883690057908,173.3616816413857)" fill="none" stroke="#ff5c58"></use><use xlink:href="#bbburst-shape-7" width="22.4062230759482" opacity="0.5581468746280962" transform="matrix(0.9997088512474266,-0.024129084888380933,0.024129084888380933,0.9997088512474266,577.6432093893098,10.521988383882103)" fill="#2c2891"></use><use xlink:href="#bbburst-shape-11" width="33.457315549065356" opacity="0.28959224350972057" transform="matrix(0.7740817656165003,0.6330856341286236,-0.6330856341286236,0.7740817656165003,321.3543310840945,96.95391083746154)" fill="none" stroke="#00a19d"></use><use xlink:href="#bbburst-shape-10" width="17.719427493279117" opacity="0.5886630938290602" transform="matrix(0.7172143619123865,0.6968526092844943,-0.6968526092844943,0.7172143619123865,700.9770868416476,-75.93993099634679)" fill="none" stroke="#00a19d"></use><use xlink:href="#bbburst-shape-11" width="32.64983033970217" opacity="0.10133318717456741" transform="matrix(0.7859222384238747,-0.6183253473300333,0.6183253473300333,0.7859222384238747,-105.57122735348287,-226.22711735763784)" fill="none" stroke="#ffbd9b"></use><use xlink:href="#bbburst-shape-6" width="16.803908305435968" opacity="0.7077908344830108" transform="matrix(0.7910099484047562,0.6118032866246347,-0.6118032866246347,0.7910099484047562,749.3468166239611,8.389235759176586)" fill="#00a19d"></use><use xlink:href="#bbburst-shape-8" width="17.768509837288242" opacity="0.5929793399854335" transform="matrix(0.9995588229832024,-0.029701168267174987,0.029701168267174987,0.9995588229832024,225.22602748633147,-98.69224454034872)" fill="none" stroke="#00a19d"></use><use xlink:href="#bbburst-shape-7" width="11.542696566562974" opacity="0.8608380144752485" transform="matrix(0.9817128994276042,0.19036749485520565,-0.19036749485520565,0.9817128994276042,407.87770065335957,3.480029120985705)" fill="#ff5c58"></use><use xlink:href="#bbburst-shape-9" width="32.75114692394244" opacity="0.16845862224461206" transform="matrix(0.9087773556279399,-0.41728134142073586,0.41728134142073586,0.9087773556279399,304.04497733119524,407.3147978341494)" fill="none" stroke="#00a19d"></use><use xlink:href="#bbburst-shape-10" width="26.40734266434477" opacity="0.4728139003692331" transform="matrix(0.9994331390193878,-0.03366601594862418,0.03366601594862418,0.9994331390193878,477.0295284088769,214.04369845492357)" fill="none" stroke="#00a19d"></use><use xlink:href="#bbburst-shape-11" width="12.12474404286211" opacity="0.8665447219041882" transform="matrix(0.9821043080189946,-0.1883378033495444,0.1883378033495444,0.9821043080189946,378.03614953520866,17.29123147534915)" fill="none" stroke="#ffa6d5"></use><use xlink:href="#bbburst-shape-12" width="34.30474590829496" opacity="0.4670590748586043" transform="matrix(0.988502537044398,-0.15120427988912366,0.15120427988912366,0.988502537044398,556.3366441295447,-46.35552631691934)" fill="none" stroke="#ffa6d5"></use><use xlink:href="#bbburst-shape-9" width="18.83073095259804" opacity="0.7325809330209176" transform="matrix(0.9639863778385817,-0.26595161842269616,0.26595161842269616,0.9639863778385817,250.64928252049913,-98.68960374345494)" fill="none" stroke="#ff5c58"></use><use xlink:href="#bbburst-shape-8" width="32.24780045033575" opacity="0.19778409114813034" transform="matrix(0.9097295511569493,-0.4152013291787196,0.4152013291787196,0.9097295511569493,416.5642035154412,-259.4991237198729)" fill="none" stroke="#ffbd9b"></use><use xlink:href="#bbburst-shape-11" width="12.490131456050282" opacity="0.9316277689085569" transform="matrix(0.8209423182813099,-0.5710111295368143,0.5710111295368143,0.8209423182813099,197.09116935994837,73.24919019489755)" fill="none" stroke="#00a19d"></use><use xlink:href="#bbburst-shape-11" width="30.080352729732397" opacity="0.560788277180688" transform="matrix(0.9542509563430672,0.29900687670744563,-0.29900687670744563,0.9542509563430672,647.0171928580888,151.26852839466227)" fill="none" stroke="#ffa6d5"></use><use xlink:href="#bbburst-shape-8" width="11.270136791834787" opacity="0.9187423756325982" transform="matrix(0.8352739249434368,0.5498340388786291,-0.5498340388786291,0.8352739249434368,632.879162826566,94.8149171626115)" fill="none" stroke="#00a19d"></use><use xlink:href="#bbburst-shape-11" width="29.040207102395506" opacity="0.15060957684140297" transform="matrix(0.9999999318425425,-0.0003692084914758495,0.0003692084914758495,0.9999999318425425,500.8708562532656,-364.71382052970495)" fill="none" stroke="#2c2891"></use><use xlink:href="#bbburst-shape-10" width="9.638191076098055" opacity="0.8042056431964045" transform="matrix(0.966785184647756,0.2555903103515553,-0.2555903103515553,0.966785184647756,410.15461121253384,1.089083448341512)" fill="none" stroke="#00a19d"></use><use xlink:href="#bbburst-shape-10" width="10.696317045240143" opacity="0.9553800733700563" transform="matrix(0.7716573216079003,-0.6360385035584886,0.6360385035584886,0.7716573216079003,122.68771688549907,101.86991124904495)" fill="none" stroke="#00a19d"></use><use xlink:href="#bbburst-shape-12" width="46.456657040558895" opacity="0.027418878209909847" transform="matrix(0.9496344049692909,0.3133600116457442,-0.3133600116457442,0.9496344049692909,153.67597586533805,-250.46587437112788)" fill="none" stroke="#ffbd9b"></use><use xlink:href="#bbburst-shape-12" width="37.58397930322755" opacity="0.215362237815255" transform="matrix(0.9999438789001617,-0.0105942932798215,0.0105942932798215,0.9999438789001617,706.6598560276107,126.54728408130597)" fill="none" stroke="#ffa6d5"></use><use xlink:href="#bbburst-shape-14" width="30.87257935990859" opacity="0.38528377373601896" transform="matrix(0.9854600559050664,0.1699072635751145,-0.1699072635751145,0.9854600559050664,184.64016290888958,71.35374672888344)" fill="none" stroke="#2c2891"></use><use xlink:href="#bbburst-shape-7" width="22.311634020230702" opacity="0.5082126783602365" transform="matrix(0.9974570947198711,-0.07126951797924681,0.07126951797924681,0.9974570947198711,514.6817792148504,-156.7361219767143)" fill="#ff5c58"></use><use xlink:href="#bbburst-shape-7" width="16.425380406417112" opacity="0.6156754831432163" transform="matrix(0.9979048591756813,-0.06469847010218734,0.06469847010218734,0.9979048591756813,193.11341641413537,9.545145700492071)" fill="#ffa6d5"></use><use xlink:href="#bbburst-shape-9" width="32.34845554817812" opacity="0.36218973572849944" transform="matrix(0.9743617749989811,0.2249869583349998,-0.2249869583349998,0.9743617749989811,416.202838219363,287.480230187283)" fill="none" stroke="#ffa6d5"></use><use xlink:href="#bbburst-shape-8" width="33.69338338146635" opacity="0.4510281918660072" transform="matrix(0.9289662519821211,-0.37016442654351617,0.37016442654351617,0.9289662519821211,212.0470219749798,-211.19591701012763)" fill="none" stroke="#00a19d"></use><use xlink:href="#bbburst-shape-7" width="30.714798507272885" opacity="0.4743686751988011" transform="matrix(0.8011464475965255,0.5984683529673624,-0.5984683529673624,0.8011464475965255,540.9102087457497,-150.0338209379537)" fill="#ffa6d5"></use><use xlink:href="#bbburst-shape-10" width="27.30943672262434" opacity="0.25767498314187565" transform="matrix(0.9319336895706068,-0.36262873333936974,0.36262873333936974,0.9319336895706068,250.9757891416013,366.1096833238594)" fill="none" stroke="#ffbd9b"></use><use xlink:href="#bbburst-shape-11" width="28.81448891644309" opacity="0.4004514774150756" transform="matrix(0.8297434676821488,0.5581449433962498,-0.5581449433962498,0.8297434676821488,343.06904297454116,32.747665342994594)" fill="none" stroke="#00a19d"></use><use xlink:href="#bbburst-shape-8" width="21.82928272295778" opacity="0.612357461974242" transform="matrix(0.9202395702387942,-0.3913555076483777,0.3913555076483777,0.9202395702387942,209.98010673185368,-136.68229851792063)" fill="none" stroke="#ffa6d5"></use><use xlink:href="#bbburst-shape-11" width="29.808903786105894" opacity="0.5519745733357597" transform="matrix(0.8578673787796809,-0.5138711515795369,0.5138711515795369,0.8578673787796809,355.7665919512342,-37.144761985381194)" fill="none" stroke="#2c2891"></use><use xlink:href="#bbburst-shape-9" width="32.1283049262737" opacity="0.055628326673711426" transform="matrix(0.9950769632741017,0.09910518231249098,-0.09910518231249098,0.9950769632741017,82.24459870533353,253.1835363605881)" fill="none" stroke="#2c2891"></use><use xlink:href="#bbburst-shape-6" width="17.04980169679538" opacity="0.6944412626314979" transform="matrix(0.9166307112948995,0.39973508616458314,-0.39973508616458314,0.9166307112948995,416.55692392907935,53.182393090496305)" fill="#ffa6d5"></use><use xlink:href="#bbburst-shape-10" width="13.402579809329383" opacity="0.8819097231879469" transform="matrix(0.9820046513164947,0.18885673086435026,-0.18885673086435026,0.9820046513164947,471.14787965206756,-47.16309415611636)" fill="none" stroke="#ffa6d5"></use><use xlink:href="#bbburst-shape-12" width="25.73492984444663" opacity="0.49019366988425306" transform="matrix(0.9332337085244435,-0.35926987804951577,0.35926987804951577,0.9332337085244435,351.4970108421637,-171.52427858470256)" fill="none" stroke="#ffa6d5"></use><use xlink:href="#bbburst-shape-6" width="41.54237404110425" opacity="0.2864314618814723" transform="matrix(0.8514684017594641,0.524405912252316,-0.524405912252316,0.8514684017594641,727.3386378011447,339.74722877346613)" fill="#00a19d"></use><use xlink:href="#bbburst-shape-7" width="18.686728603589913" opacity="0.6331454247097306" transform="matrix(0.9295312750429331,-0.36874328294500386,0.36874328294500386,0.9295312750429331,314.8312827289029,-117.34764183506695)" fill="#00a19d"></use><use xlink:href="#bbburst-shape-12" width="15.787143017878293" opacity="0.7964745147366146" transform="matrix(0.9420069500107661,0.33559336425414316,-0.33559336425414316,0.9420069500107661,578.0393084141233,96.44065584082239)" fill="none" stroke="#ffbd9b"></use><use xlink:href="#bbburst-shape-10" width="15.621413240065712" opacity="0.7730580677237746" transform="matrix(0.8941883578012498,-0.4476909433668543,0.4476909433668543,0.8941883578012498,150.84851804372107,-34.48315324743845)" fill="none" stroke="#ffa6d5"></use><use xlink:href="#bbburst-shape-14" width="22.328587198712526" opacity="0.5137148651579417" transform="matrix(0.9820953642634287,-0.18838443537692617,0.18838443537692617,0.9820953642634287,105.4921554615207,-58.08875153699512)" fill="none" stroke="#00a19d"></use><use xlink:href="#bbburst-shape-7" width="30.641953331760075" opacity="0.1664022039388332" transform="matrix(0.9967047821927487,-0.08111459273216703,0.08111459273216703,0.9967047821927487,262.28464005871774,366.74959159041686)" fill="#ffa6d5"></use><use xlink:href="#bbburst-shape-11" width="27.20042110703477" opacity="0.6038028018604118" transform="matrix(0.9257602701222075,-0.37811099198946513,0.37811099198946513,0.9257602701222075,288.6270515566482,204.86838154023513)" fill="none" stroke="#ff5c58"></use><use xlink:href="#bbburst-shape-9" width="24.589937384163836" opacity="0.16828593503741385" transform="matrix(0.9895756484473726,-0.14401401320691704,0.14401401320691704,0.9895756484473726,-38.21685216769774,71.69516943260174)" fill="none" stroke="#ffa6d5"></use><use xlink:href="#bbburst-shape-11" width="24.008188959904935" opacity="0.5183466163123653" transform="matrix(0.9694988269071851,-0.2450959498351447,0.2450959498351447,0.9694988269071851,123.10790030243672,152.83620775431928)" fill="none" stroke="#ff5c58"></use><use xlink:href="#bbburst-shape-11" width="18.955512968927405" opacity="0.5088126108179767" transform="matrix(0.9540354017955353,-0.299693930737397,0.299693930737397,0.9540354017955353,50.04261118060174,15.437984704907592)" fill="none" stroke="#ffbd9b"></use><use xlink:href="#bbburst-shape-12" width="32.35636298224969" opacity="0.602848684891278" transform="matrix(0.9142695583907807,0.40510637442519576,-0.40510637442519576,0.9142695583907807,533.4948139055858,205.87069162469408)" fill="none" stroke="#ff5c58"></use><use xlink:href="#bbburst-shape-9" width="20.98632002109051" opacity="0.6101788266849448" transform="matrix(0.989081542090429,-0.14736927459962262,0.14736927459962262,0.989081542090429,258.36785082920744,-154.06010589524496)" fill="none" stroke="#00a19d"></use><use xlink:href="#bbburst-shape-7" width="19.865217690409313" opacity="0.62562459649672" transform="matrix(0.9986441381743595,0.052056558568452684,-0.052056558568452684,0.9986441381743595,256.2816506516879,67.0653531374897)" fill="#00a19d"></use><use xlink:href="#bbburst-shape-9" width="42.141647797163934" opacity="0.1752682604585467" transform="matrix(0.9955208787121961,-0.09454194861592959,0.09454194861592959,0.9955208787121961,622.3249134374707,-238.76846380446165)" fill="none" stroke="#00a19d"></use><use xlink:href="#bbburst-shape-12" width="36.52447831648818" opacity="0.3764087212007713" transform="matrix(0.9946858761486338,0.10295633924350965,-0.10295633924350965,0.9946858761486338,664.56917572246,143.01295332123908)" fill="none" stroke="#2c2891"></use><use xlink:href="#bbburst-shape-6" width="10.462741425648177" opacity="0.8641829138741424" transform="matrix(0.8460305650801779,0.533134394829404,-0.533134394829404,0.8460305650801779,639.7619249895147,6.087836729876699)" fill="#2c2891"></use><use xlink:href="#bbburst-shape-9" width="30.152985065863234" opacity="0.36724937566636173" transform="matrix(0.9418671753425418,-0.33598545208425556,0.33598545208425556,0.9418671753425418,493.4320917181701,-121.75878826934732)" fill="none" stroke="#ffa6d5"></use><use xlink:href="#bbburst-shape-10" width="24.988813489435884" opacity="0.6511513542420378" transform="matrix(0.9778189994683857,-0.20945167528249847,0.20945167528249847,0.9778189994683857,188.53782060559595,117.84406963098735)" fill="none" stroke="#ffbd9b"></use><use xlink:href="#bbburst-shape-8" width="23.38369672569967" opacity="0.700768907415505" transform="matrix(0.9469726401025104,-0.3213142058753103,0.3213142058753103,0.9469726401025104,394.4989938186906,37.20763755360787)" fill="none" stroke="#ffa6d5"></use><use xlink:href="#bbburst-shape-12" width="24.784584481929816" opacity="0.5085978453971783" transform="matrix(0.970913424578961,-0.23943082920199363,0.23943082920199363,0.970913424578961,91.23306010565302,106.84684178996662)" fill="none" stroke="#2c2891"></use><use xlink:href="#bbburst-shape-11" width="31.458205771907927" opacity="0.37150529851673575" transform="matrix(0.9593300614415207,0.2822867924905594,-0.2822867924905594,0.9593300614415207,239.53222128163773,-103.51398875833661)" fill="none" stroke="#ff5c58"></use><use xlink:href="#bbburst-shape-9" width="31.84239104826179" opacity="0.5081508630324263" transform="matrix(0.9728582579567475,-0.23140183647793852,0.23140183647793852,0.9728582579567475,152.08586994004128,-157.24814302725156)" fill="none" stroke="#00a19d"></use><use xlink:href="#bbburst-shape-7" width="23.367531950811763" opacity="0.2771431210048594" transform="matrix(0.9071565022037928,-0.4207933940895223,0.4207933940895223,0.9071565022037928,-93.6493317229824,-40.40262500635265)" fill="#00a19d"></use><use xlink:href="#bbburst-shape-12" width="11.872919673398401" opacity="0.8957980609446259" transform="matrix(0.8861424369010815,0.4634129708186995,-0.4634129708186995,0.8861424369010815,559.5478127887301,0.6331498210792006)" fill="none" stroke="#00a19d"></use><use xlink:href="#bbburst-shape-14" width="39.63279511430815" opacity="0.28084618578451404" transform="matrix(0.8221705029115527,0.5692413057238244,-0.5692413057238244,0.8221705029115527,527.8041070775255,-252.7473138527335)" fill="none" stroke="#ff5c58"></use><use xlink:href="#bbburst-shape-9" width="10.829774861628461" opacity="0.9192783251428447" transform="matrix(0.9371160779356364,-0.34901784549580017,0.34901784549580017,0.9371160779356364,243.6657405559832,61.38863904718431)" fill="none" stroke="#ff5c58"></use><use xlink:href="#bbburst-shape-8" width="9.21624258541145" opacity="0.9826643604141478" transform="matrix(0.7788149139876006,0.627253800108446,-0.627253800108446,0.7788149139876006,652.849138906456,91.07934037210254)" fill="none" stroke="#2c2891"></use><use xlink:href="#bbburst-shape-9" width="21.934434950586432" opacity="0.49131815236341037" transform="matrix(0.7876856930322126,0.616077307642769,-0.616077307642769,0.7876856930322126,562.9043637951454,294.33136078940555)" fill="none" stroke="#ffa6d5"></use><use xlink:href="#bbburst-shape-12" width="34.94337083632787" opacity="0.12006670478765402" transform="matrix(0.8106830533239311,-0.5854852577592269,0.5854852577592269,0.8106830533239311,-212.0456074606376,-70.78145461539836)" fill="none" stroke="#ffbd9b"></use><use xlink:href="#bbburst-shape-9" width="31.100788263166997" opacity="0.2750143687987634" transform="matrix(0.7143332790832585,-0.6998056633052919,0.6998056633052919,0.7143332790832585,-139.17182486748607,336.9743704025833)" fill="none" stroke="#00a19d"></use><use xlink:href="#bbburst-shape-11" width="40.13550550411034" opacity="0.08877126658513212" transform="matrix(0.7865122604658055,0.6175746628035909,-0.6175746628035909,0.7865122604658055,989.641131119789,-127.21851306889246)" fill="none" stroke="#ffa6d5"></use><use xlink:href="#bbburst-shape-14" width="19.154269712642574" opacity="0.739079433491258" transform="matrix(0.8775491159911017,-0.4794867558371511,0.4794867558371511,0.8775491159911017,313.877292072397,25.747203322298276)" fill="none" stroke="#00a19d"></use><use xlink:href="#bbburst-shape-7" width="23.436016745828585" opacity="0.6340086677672863" transform="matrix(0.9367614918429183,0.34996843772007513,-0.34996843772007513,0.9367614918429183,368.8698112376625,-17.625234300531986)" fill="#ff5c58"></use><use xlink:href="#bbburst-shape-8" width="14.256551895327013" opacity="0.8917040993582197" transform="matrix(0.8902157741976838,0.4555391041059137,-0.4555391041059137,0.8902157741976838,535.084809072204,67.34034272377556)" fill="none" stroke="#ffbd9b"></use><use xlink:href="#bbburst-shape-7" width="14.042359290622683" opacity="0.725032499801843" transform="matrix(0.7206997549009341,0.693247331971594,-0.693247331971594,0.7206997549009341,563.3017119289603,165.55424249005392)" fill="#ffa6d5"></use><use xlink:href="#bbburst-shape-6" width="9.98448921328428" opacity="0.8143654399154352" transform="matrix(0.9840052440171586,0.178139495190517,-0.178139495190517,0.9840052440171586,548.554341423035,-9.308422038522792)" fill="#ffa6d5"></use><use xlink:href="#bbburst-shape-7" width="29.85665274582107" opacity="0.16948063892428022" transform="matrix(0.9112960220697498,-0.41175181864789645,0.41175181864789645,0.9112960220697498,-149.19528307722368,-5.16098661969545)" fill="#ffa6d5"></use><use xlink:href="#bbburst-shape-7" width="12.483882975581244" opacity="0.8248940896577319" transform="matrix(0.9599483968928997,0.280176864324576,-0.280176864324576,0.9599483968928997,437.7151989869709,53.51348237208498)" fill="#00a19d"></use><use xlink:href="#bbburst-shape-9" width="13.214767750052262" opacity="0.8596519978680852" transform="matrix(0.9939607526032418,-0.10973614848534224,0.10973614848534224,0.9939607526032418,301.34150872468155,-37.77413855823022)" fill="none" stroke="#00a19d"></use><use xlink:href="#bbburst-shape-10" width="27.347571429116414" opacity="0.18808211840692846" transform="matrix(0.8268581268079561,-0.5624105601174626,0.5624105601174626,0.8268581268079561,526.8461763478477,117.39976601860394)" fill="none" stroke="#2c2891"></use><use xlink:href="#bbburst-shape-7" width="31.787929174885054" opacity="0.3008093340723522" transform="matrix(0.9681890788703579,0.250219718559845,-0.250219718559845,0.9681890788703579,783.5301125462321,-89.43198680135987)" fill="#ff5c58"></use><use xlink:href="#bbburst-shape-6" width="27.95158585500358" opacity="0.2508559685785088" transform="matrix(0.9935622096751621,-0.11328784359060493,0.11328784359060493,0.9935622096751621,31.247609009882325,137.6663619475737)" fill="#00a19d"></use><use xlink:href="#bbburst-shape-8" width="37.08122727258856" opacity="-0.09472509463779177" transform="matrix(0.9976530993691917,0.06847111302619435,-0.06847111302619435,0.9976530993691917,70.43034351347012,-358.2759897969679)" fill="none" stroke="#ffa6d5"></use><use xlink:href="#bbburst-shape-12" width="26.275536484273086" opacity="0.3014815238744438" transform="matrix(0.7224085656633703,0.6914664592416555,-0.6914664592416555,0.7224085656633703,445.02426453501084,-120.51206731040574)" fill="none" stroke="#2c2891"></use><use xlink:href="#bbburst-shape-14" width="36.864580314669006" opacity="0.07922886318556288" transform="matrix(0.9163953573278273,-0.4002743422554133,0.4002743422554133,0.9163953573278273,438.17691760485377,394.9706622760674)" fill="none" stroke="#ffbd9b"></use><use xlink:href="#bbburst-shape-12" width="7.7960785172500175" opacity="0.9434485071724683" transform="matrix(0.9768550441906775,0.21390236707252597,-0.21390236707252597,0.9768550441906775,463.99312068910086,-9.812807798118342)" fill="none" stroke="#00a19d"></use><use xlink:href="#bbburst-shape-8" width="34.762852806238676" opacity="0.32807208100245144" transform="matrix(0.9999982780881156,-0.001855753432924624,0.001855753432924624,0.9999982780881156,227.7208237452279,-260.08671867835596)" fill="none" stroke="#ffa6d5"></use><use xlink:href="#bbburst-shape-8" width="44.24652989047499" opacity="-0.07969858775108474" transform="matrix(0.8026649479247371,0.5964301982403131,-0.5964301982403131,0.8026649479247371,973.0969656101462,-268.86708157572315)" fill="none" stroke="#ffbd9b"></use><use xlink:href="#bbburst-shape-10" width="43.65640693341752" opacity="0.2684129522818126" transform="matrix(0.87469970477509,0.4846652726019995,-0.4846652726019995,0.87469970477509,425.0655740988034,332.7465808377417)" fill="none" stroke="#ff5c58"></use><use xlink:href="#bbburst-shape-9" width="32.71608791099578" opacity="0.02556869320531341" transform="matrix(0.999921320221311,-0.01254405703393171,0.01254405703393171,0.999921320221311,630.502519563062,-358.9179675293537)" fill="none" stroke="#2c2891"></use><use xlink:href="#bbburst-shape-7" width="31.73248587906111" opacity="0.12036811816117132" transform="matrix(0.9436498454146526,-0.3309455684080123,0.3309455684080123,0.9436498454146526,93.26627597628914,-334.5583160958857)" fill="#2c2891"></use><use xlink:href="#bbburst-shape-10" width="23.42941684334415" opacity="0.1780938763760309" transform="matrix(0.9269426861222766,-0.3752029539388232,0.3752029539388232,0.9269426861222766,219.30834299946355,-335.7116628788811)" fill="none" stroke="#00a19d"></use><use xlink:href="#bbburst-shape-10" width="15.836595696929662" opacity="0.7164591074254467" transform="matrix(0.9459595273496426,-0.32428470919308033,0.32428470919308033,0.9459595273496426,145.89497719875448,-26.946169187873636)" fill="none" stroke="#ffa6d5"></use><use xlink:href="#bbburst-shape-12" width="36.197358732870796" opacity="0.3277581464709859" transform="matrix(0.8161619443145458,-0.5778232261277667,0.5778232261277667,0.8161619443145458,267.8594937344534,-196.34881330148107)" fill="none" stroke="#2c2891"></use><use xlink:href="#bbburst-shape-10" width="46.89406239907058" opacity="-0.09207587997700184" transform="matrix(0.9609712195239549,0.2766483602818619,-0.2766483602818619,0.9609712195239549,143.04782845701183,359.0214895461654)" fill="none" stroke="#00a19d"></use><use xlink:href="#bbburst-shape-9" width="15.710587692762683" opacity="0.841278486280944" transform="matrix(0.825097434794618,0.5649904628357377,-0.5649904628357377,0.825097434794618,634.3475678023377,135.31570621957366)" fill="none" stroke="#00a19d"></use><use xlink:href="#bbburst-shape-12" width="16.22167812361933" opacity="0.7378335649228467" transform="matrix(0.8430682144412606,0.5378066435056605,-0.5378066435056605,0.8430682144412606,616.5034628416689,176.07521333960108)" fill="none" stroke="#00a19d"></use><use xlink:href="#bbburst-shape-7" width="9.7544463717915" opacity="0.9424149282438968" transform="matrix(0.7312067567498622,0.6821559051150607,-0.6821559051150607,0.7312067567498622,679.4061018464457,80.31427895977362)" fill="#00a19d"></use><use xlink:href="#bbburst-shape-14" width="21.17338086605848" opacity="0.6483158352617733" transform="matrix(0.8197546421672394,-0.5727148737768746,0.5727148737768746,0.8197546421672394,96.99967282858802,222.36414751429487)" fill="none" stroke="#00a19d"></use><use xlink:href="#bbburst-shape-10" width="30.25733436399991" opacity="0.09935191684440103" transform="matrix(0.7226005508768782,0.6912658272129703,-0.6912658272129703,0.7226005508768782,298.76902637682923,272.8827136272753)" fill="none" stroke="#2c2891"></use><use xlink:href="#bbburst-shape-12" width="15.756890637056408" opacity="0.7962104695539096" transform="matrix(0.9152316543639676,0.4029280566679303,-0.4029280566679303,0.9152316543639676,474.40126531872215,-14.882076535035822)" fill="none" stroke="#2c2891"></use><use xlink:href="#bbburst-shape-8" width="15.878056485057023" opacity="0.7964101253994829" transform="matrix(0.9318352634793423,-0.362881580872307,0.362881580872307,0.9318352634793423,314.77253255743415,-31.990084864999062)" fill="none" stroke="#ffa6d5"></use><use xlink:href="#bbburst-shape-9" width="30.986798770133916" opacity="0.5017532715616998" transform="matrix(0.9948779371721936,0.10108357991286596,-0.10108357991286596,0.9948779371721936,636.027692656307,76.13657175386385)" fill="none" stroke="#ffbd9b"></use><use xlink:href="#bbburst-shape-12" width="25.519823096929585" opacity="0.6255871108703988" transform="matrix(0.7311587370378074,-0.6822073740830411,0.6822073740830411,0.7311587370378074,280.59009920893794,72.93508281098843)" fill="none" stroke="#ffa6d5"></use><use xlink:href="#bbburst-shape-10" width="15.505633455911099" opacity="0.824999259194368" transform="matrix(0.9612859696225152,-0.2755526893479733,0.2755526893479733,0.9612859696225152,257.1551543421161,-56.9973172377982)" fill="none" stroke="#00a19d"></use><use xlink:href="#bbburst-shape-11" width="33.100344190815356" opacity="0.3069370196991881" transform="matrix(0.7854778291164923,-0.6188897963017669,0.6188897963017669,0.7854778291164923,166.54869117113185,-214.95864107732518)" fill="none" stroke="#00a19d"></use><use xlink:href="#bbburst-shape-12" width="16.694534905540277" opacity="0.6951422255959846" transform="matrix(0.9792665610722178,-0.20257591753659254,0.20257591753659254,0.9792665610722178,372.5103147489473,132.47210751773105)" fill="none" stroke="#2c2891"></use><use xlink:href="#bbburst-shape-12" width="12.377241982901294" opacity="0.6889789375736459" transform="matrix(0.9448392263885228,0.32753448105128985,-0.32753448105128985,0.9448392263885228,416.6886067754426,-68.41235430045276)" fill="none" stroke="#2c2891"></use><use xlink:href="#bbburst-shape-8" width="15.983224151522231" opacity="0.6623849702097518" transform="matrix(0.9593796856041408,0.2821180938013372,-0.2821180938013372,0.9593796856041408,413.9749777841284,-107.51092713430421)" fill="none" stroke="#2c2891"></use><use xlink:href="#bbburst-shape-9" width="19.65483968406236" opacity="0.7486951198552684" transform="matrix(0.7569715391390369,-0.6534478471412064,0.6534478471412064,0.7569715391390369,183.7032693471325,3.4272989117770294)" fill="none" stroke="#00a19d"></use><use xlink:href="#bbburst-shape-12" width="32.14710790019838" opacity="0.05223221706961678" transform="matrix(0.9999329370225882,0.011581081874361108,-0.011581081874361108,0.9999329370225882,168.70371249267777,365.2428972048507)" fill="none" stroke="#ffa6d5"></use><use xlink:href="#bbburst-shape-10" width="27.681902515051604" opacity="0.4591763313974305" transform="matrix(0.7366148962585762,0.6763124238175482,-0.6763124238175482,0.7366148962585762,709.464954836757,-142.36570165791693)" fill="none" stroke="#2c2891"></use><use xlink:href="#bbburst-shape-11" width="20.959867044319505" opacity="0.6497666367969424" transform="matrix(0.9050331955710471,-0.42534093961721897,0.42534093961721897,0.9050331955710471,327.8503281155586,-72.97192414524818)" fill="none" stroke="#2c2891"></use><use xlink:href="#bbburst-shape-8" width="46.00414687674824" opacity="0.18642616959977543" transform="matrix(0.7095307183609799,0.7046745062098897,-0.7046745062098897,0.7095307183609799,928.3277694452422,354.8956516864762)" fill="none" stroke="#00a19d"></use><use xlink:href="#bbburst-shape-12" width="20.816018192710647" opacity="0.7824642365241947" transform="matrix(0.8609256364551392,0.508730821254535,-0.508730821254535,0.8609256364551392,684.7852062156786,88.2556775669288)" fill="none" stroke="#ffbd9b"></use><use xlink:href="#bbburst-shape-7" width="15.101535034722213" opacity="0.7467443099229663" transform="matrix(0.9957572153718931,-0.09201938945033956,0.09201938945033956,0.9957572153718931,280.3626899528434,87.97521612139394)" fill="#ffa6d5"></use><use xlink:href="#bbburst-shape-6" width="23.683562854448724" opacity="0.4516020562642451" transform="matrix(0.7335113574648614,0.6796771943136362,-0.6796771943136362,0.7335113574648614,463.3043099585665,-46.18642907365077)" fill="#2c2891"></use><use xlink:href="#bbburst-shape-10" width="35.731142108494964" opacity="0.17419733620820133" transform="matrix(0.7361450851058148,0.6768237685502428,-0.6768237685502428,0.7361450851058148,1021.8120707283315,19.772929209696088)" fill="none" stroke="#2c2891"></use><use xlink:href="#bbburst-shape-6" width="10.587541858352418" opacity="0.8228748989817428" transform="matrix(0.911085341253476,-0.41221778340221726,0.41221778340221726,0.911085341253476,185.2533248527673,103.51138187586821)" fill="#ffbd9b"></use><use xlink:href="#bbburst-shape-7" width="19.61011679009636" opacity="0.7136240250345489" transform="matrix(0.990855050300585,-0.13493060918051658,0.13493060918051658,0.990855050300585,349.68411583908846,-123.18213964343937)" fill="#2c2891"></use><use xlink:href="#bbburst-shape-12" width="14.024834662269894" opacity="0.8088630744359806" transform="matrix(0.9618733876503776,-0.27349512999318026,0.27349512999318026,0.9618733876503776,295.5252889257911,-68.07146388402407)" fill="none" stroke="#00a19d"></use><use xlink:href="#bbburst-shape-9" width="19.22093333714947" opacity="0.6470101689227064" transform="matrix(0.8352932011674384,0.5498047545115021,-0.5498047545115021,0.8352932011674384,756.5682541989057,126.2321005600474)" fill="none" stroke="#ffbd9b"></use><use xlink:href="#bbburst-shape-6" width="10.861844765959733" opacity="0.8740751234154659" transform="matrix(0.9050914224581931,-0.42521702340405515,0.42521702340405515,0.9050914224581931,274.3416082550139,12.411690913370876)" fill="#ff5c58"></use><use xlink:href="#bbburst-shape-12" width="31.555407917260865" opacity="0.40569985890393845" transform="matrix(0.978031686396002,-0.20845627936186592,0.20845627936186592,0.978031686396002,138.6228394161003,224.38440429336833)" fill="none" stroke="#2c2891"></use><use xlink:href="#bbburst-shape-10" width="34.17683712764453" opacity="0.1497668913150354" transform="matrix(0.8976125285589237,0.44078537699662346,-0.44078537699662346,0.8976125285589237,312.7424836129578,324.57028641736196)" fill="none" stroke="#ff5c58"></use><use xlink:href="#bbburst-shape-11" width="36.46239767101025" opacity="0.3537816888736578" transform="matrix(0.9809388266787987,-0.19431679884668124,0.19431679884668124,0.9809388266787987,494.1819716995047,-209.53869130225854)" fill="none" stroke="#ffbd9b"></use><use xlink:href="#bbburst-shape-10" width="10.518706901950505" opacity="0.9093291498965763" transform="matrix(0.9422974303270291,-0.3347768701673965,0.3347768701673965,0.9422974303270291,221.10145584508973,16.952590481583513)" fill="none" stroke="#ffa6d5"></use><use xlink:href="#bbburst-shape-7" width="15.512745524770608" opacity="0.7297535268146258" transform="matrix(0.9564436232749727,0.2919171038096981,-0.2919171038096981,0.9564436232749727,388.2779972001081,3.149649802480951)" fill="#ffa6d5"></use><use xlink:href="#bbburst-shape-12" width="20.14833560433317" opacity="0.5563260492498725" transform="matrix(0.8276598606809757,-0.5612300375225365,0.5612300375225365,0.8276598606809757,53.0067100473712,238.3671333324324)" fill="none" stroke="#2c2891"></use><use xlink:href="#bbburst-shape-12" width="27.165524765700635" opacity="0.22647236031647489" transform="matrix(0.943661944402676,-0.3309110676392687,0.3309110676392687,0.943661944402676,-35.50524512924447,-165.07569826609696)" fill="none" stroke="#ffa6d5"></use><use xlink:href="#bbburst-shape-8" width="13.904252465595668" opacity="0.7812784043299865" transform="matrix(0.9507148796710573,-0.3100664728280809,0.3100664728280809,0.9507148796710573,173.68402625629417,44.9518600221669)" fill="none" stroke="#ffa6d5"></use><use xlink:href="#bbburst-shape-7" width="42.90058972589477" opacity="-0.0731781674456391" transform="matrix(0.9716968752169622,0.2362312060113807,-0.2362312060113807,0.9716968752169622,814.6993597498484,347.97396999555906)" fill="#00a19d"></use><use xlink:href="#bbburst-shape-12" width="18.739681185309742" opacity="0.7429110441920557" transform="matrix(0.9447539694747068,0.3277803184478664,-0.3277803184478664,0.9447539694747068,487.3063729453635,129.2749585763617)" fill="none" stroke="#00a19d"></use><use xlink:href="#bbburst-shape-10" width="19.388246713765312" opacity="0.7040961630035676" transform="matrix(0.7930438607265968,-0.6091645384983059,0.6091645384983059,0.7930438607265968,245.75761700710754,179.79271552059566)" fill="none" stroke="#2c2891"></use><use xlink:href="#bbburst-shape-11" width="38.11765981537791" opacity="0.0706586517171569" transform="matrix(0.7200456477032103,-0.6939267001806922,0.6939267001806922,0.7200456477032103,464.948436170221,343.35446374895474)" fill="none" stroke="#ffa6d5"></use><use xlink:href="#bbburst-shape-12" width="30.959772532690693" opacity="0.37932227104298044" transform="matrix(0.7916454078208982,0.6109808084351617,-0.6109808084351617,0.7916454078208982,818.1018235583243,282.265412782979)" fill="none" stroke="#00a19d"></use></svg>